<?xml version="1.0" encoding="UTF-8"?>
<!DOCTYPE svg PUBLIC "-//W3C//DTD SVG 1.1//EN" "http://www.w3.org/Graphics/SVG/1.1/DTD/svg11.dtd">
<!-- Creator: CorelDRAW -->
<svg xmlns="http://www.w3.org/2000/svg" xml:space="preserve" width="2048px" height="2048px" style="shape-rendering:geometricPrecision; text-rendering:geometricPrecision; image-rendering:optimizeQuality; fill-rule:evenodd; clip-rule:evenodd"
viewBox="0 0 2048 2048"
 xmlns:xlink="http://www.w3.org/1999/xlink">
 <defs>
  <style type="text/css">
   <![CDATA[
    .fil2 {fill:none}
    .fil0 {fill:#424242}
    .fil1 {fill:#424242;fill-rule:nonzero}
   ]]>
  </style>
 </defs>
 <g id="Layer_x0020_1">
  <metadata id="CorelCorpID_0Corel-Layer"/>
  <path class="fil0" d="M1270.3 1007.71l0 171.985c0,20.054 7.41615,37.5024 24.3851,48.8055 11.3811,7.57914 25.3547,11.1638 38.9516,11.1638 35.9528,0.0011811 63.3414,-22.5543 63.3414,-59.9693l0 -169.429c0,-47.0315 -9.71812,-93.2233 -28.4799,-136.339 -34.317,-78.8646 -83.7993,-130.05 -161.767,-166.188 -29.6233,-13.7303 -60.9721,-23.7189 -92.9564,-30.215 -5.75788,-1.16929 -11.1945,-0.960237 -16.7374,1.03937 -16.6736,6.01654 -33.2209,28.6524 -43.78,42.2717 -4.89449,6.313 -9.7878,12.6272 -14.6882,18.9366 -5.72481,7.36772 -10.9748,16.2626 -22.3784,16.3512 -11.8181,0.0933072 -16.8201,-8.53229 -22.6217,-16.2945 -4.44803,-5.9504 -8.90788,-11.889 -13.5059,-17.7248 -10.3571,-13.1457 -26.6504,-35.0764 -42.867,-40.8307 -5.78622,-2.05276 -11.4047,-2.09055 -17.3504,-0.673229 -29.2902,6.98268 -57.8552,17.0587 -84.9497,30.2079 -74.8489,36.326 -122.192,86.8217 -155.392,163.12 -18.7618,43.1162 -28.4799,89.3079 -28.4799,136.339l0 169.429c0,20.054 7.41615,37.5036 24.3862,48.8055 11.3799,7.58032 25.3547,11.1638 38.9528,11.1638 35.9516,0 63.339,-22.5555 63.339,-59.9693l0 -169.429c0,-37.6359 10.9913,-59.5571 27.0484,-93.5906 59.1579,-125.379 45.4075,56.7367 45.4075,87.9615l0 177.039 347.685 0 0 -237.039c0,-144.819 64.5402,32.6032 72.4571,63.0733zm-420.142 205.967l0 527.917c0,10.8036 3.31299,20.5606 10.1221,28.9642 9.74292,12.0213 25.0229,19.3382 40.017,22.1209 16.1469,2.99764 34.7929,1.2248 48.6993,-8.10473 14.7874,-9.91891 20.1142,-25.7292 20.1142,-42.9803l0 -303.831c0,-146.321 109.78,-148.329 109.78,3.1252l0 300.705c0,13.2248 4.20473,24.9567 13.9051,34.128 11.8146,11.1685 29.1685,16.1433 45.137,16.2803 31.1481,0.266929 59.9103,-16.3866 59.9103,-50.4083l0 -527.917 -347.685 0z"/>
  <path class="fil1" d="M1008.52 311.999c-36.5398,0 -69.6225,14.811 -93.5658,38.7532 -23.9421,23.9433 -38.7532,57.0248 -38.7532,93.5658 0,36.541 14.811,69.6225 38.7532,93.5658 23.9433,23.9421 57.026,38.7532 93.5658,38.7532 36.541,0 69.6237,-14.811 93.5658,-38.7532 23.9433,-23.9433 38.7532,-57.0248 38.7532,-93.5658 0,-36.541 -14.8099,-69.6237 -38.7532,-93.5658 -23.9421,-23.9433 -57.0248,-38.7532 -93.5658,-38.7532zm-127.504 4.81536c32.6315,-32.6303 77.7131,-52.8154 127.504,-52.8154 49.7918,0 94.8733,20.1839 127.504,52.8154 32.6315,32.6303 52.8154,77.7119 52.8154,127.504 0,49.7918 -20.1839,94.8721 -52.8154,127.504 -32.6303,32.6303 -77.7119,52.8154 -127.504,52.8154 -49.7906,0 -94.8721,-20.1851 -127.504,-52.8154 -32.6303,-32.6315 -52.8154,-77.7119 -52.8154,-127.504 0,-49.7918 20.1851,-94.8721 52.8154,-127.504z"/>
  <path class="fil1" d="M753.392 319.999c-2.56536,16.9677 -8.25001,29.1425 -15.9083,38.3044l-34.4138 -24.8599c17.4012,64.9536 108.415,73.8319 132.096,93.9379 -54.1264,-11.6929 -71.8548,35.3008 -105.973,-15.9354 -10.5425,12.0945 36.4725,70.4386 -35.4012,33.6154 35.3162,41.7981 68.9386,24.5374 103.063,12.1205 13.8567,-5.03977 25.037,-0.650788 36.5611,-3.73819 13.911,-3.72756 22.1681,-18.0284 18.4406,-31.9394l-0.034252 0.00944883c-5.64331,-21.0106 -37.8709,-32.3681 -63.9827,-53.9091 -19.5957,-16.161 -33.0839,-42.5138 -34.4469,-47.6055z"/>
  <path class="fil1" d="M1324.41 445.014c4.83189,-16.9819 -10.6441,-37.6359 -27.626,-42.4677 -16.9819,-4.83189 -43.2615,5.01851 -48.0933,22.0004l-0.635434 30.2351c3.62953,21.1323 0.761812,63.2741 -26.5488,72.6379l-41.7225 167.128c-4.83189,16.9819 5.01851,34.6677 22.0004,39.4996 16.9819,4.83189 34.6677,-5.01851 39.4996,-22.0004 16.2213,-56.5122 34.3181,-107.712 50.5394,-164.224 -13.2602,-24.6 -0.681497,-49.2012 17.7839,-73.8024l14.8028 -29.0067z"/>
  <path class="fil1" d="M1208.95 531.239c-9.59292,-2.44252 -19.3524,3.35551 -21.7949,12.9484 -2.44252,9.59292 3.35551,19.3524 12.9484,21.7949l91.5119 26.1862c9.59292,2.44252 19.3512,-3.35551 21.7937,-12.9484 2.4437,-9.59292 -3.35433,-19.3524 -12.9473,-21.7949l-91.5119 -26.1862z"/>
  <path class="fil0" d="M1172.91 374.925c9.01536,21.3307 14.0008,44.7803 14.0008,69.3934 0,11.6173 -1.12323,22.9713 -3.24449,33.9697l-350.301 0c-2.12126,-10.9984 -3.24449,-22.3524 -3.24449,-33.9697 0,-24.613 4.98544,-48.0626 14.0008,-69.3934l328.788 0z"/>
 </g>
 <rect class="fil2" width="2048" height="2048"/>
</svg>
